HIERARCHY
ROOT Hips
{
	OFFSET -14.64140 90.27770 -84.91600
	CHANNELS 6 Xposition Yposition Zposition Zrotation Xrotation Yrotation
	JOINT Spine
	{
		OFFSET 0.00000 13.20850 -1.60436
		CHANNELS 3 Zrotation Xrotation Yrotation
		JOINT Spine1
		{
			OFFSET 0.00000 8.61716 0.00000
			CHANNELS 3 Zrotation Xrotation Yrotation
			JOINT Spine2
			{
				OFFSET 0.00000 8.61717 0.00000
				CHANNELS 3 Zrotation Xrotation Yrotation
				JOINT Spine3
				{
					OFFSET 0.00000 8.61717 0.00000
					CHANNELS 3 Zrotation Xrotation Yrotation
					JOINT Neck
					{
						OFFSET 0.00000 11.07920 1.10792
						CHANNELS 3 Zrotation Xrotation Yrotation
						JOINT Neck1
						{
							OFFSET 0.00000 7.08032 0.00000
							CHANNELS 3 Zrotation Xrotation Yrotation
							JOINT Head
							{
								OFFSET 0.00000 7.08031 0.00000
								CHANNELS 3 Zrotation Xrotation Yrotation
								End site
								{
									OFFSET 0.00000 0.00000 0.00000
								}
							}
						}
					}
					JOINT RightShoulder
					{
						OFFSET -0.01000 7.91373 5.19711
						CHANNELS 3 Zrotation Xrotation Yrotation
						JOINT RightArm
						{
							OFFSET -18.41580 0.00000 0.00000
							CHANNELS 3 Zrotation Xrotation Yrotation
							JOINT RightForeArm
							{
								OFFSET -29.11090 0.00000 0.00000
								CHANNELS 3 Zrotation Xrotation Yrotation
								JOINT RightHand
								{
									OFFSET -24.65040 0.00000 0.00000
									CHANNELS 3 Zrotation Xrotation Yrotation
									JOINT RightHandThumb1
									{
										OFFSET -5.35114 -0.85590 3.97906
										CHANNELS 3 Zrotation Xrotation Yrotation
										JOINT RightHandThumb2
										{
											OFFSET -4.52789 0.00000 0.00000
											CHANNELS 3 Zrotation Xrotation Yrotation
											JOINT RightHandThumb3
											{
												OFFSET -2.46976 0.00000 0.00000
												CHANNELS 3 Zrotation Xrotation Yrotation
												End site
												{
													OFFSET 0.00000 0.00000 0.00000
												}
											}
										}
									}
									JOINT RightHandIndex1
									{
										OFFSET -14.26970 0.00000 2.88139
										CHANNELS 3 Zrotation Xrotation Yrotation
										JOINT RightHandIndex2
										{
											OFFSET -5.48836 0.00000 0.00000
											CHANNELS 3 Zrotation Xrotation Yrotation
											JOINT RightHandIndex3
											{
												OFFSET -3.01859 0.00000 0.00000
												CHANNELS 3 Zrotation Xrotation Yrotation
												End site
												{
													OFFSET 0.00000 0.00000 0.00000
												}
											}
										}
									}
									JOINT RightHandMiddle1
									{
										OFFSET -14.26970 0.00000 -0.09147
										CHANNELS 3 Zrotation Xrotation Yrotation
										JOINT RightHandMiddle2
										{
											OFFSET -6.17441 0.00000 0.00000
											CHANNELS 3 Zrotation Xrotation Yrotation
											JOINT RightHandMiddle3
											{
												OFFSET -3.56743 0.00000 0.00000
												CHANNELS 3 Zrotation Xrotation Yrotation
												End site
												{
													OFFSET 0.00000 0.00000 0.00000
												}
											}
										}
									}
									JOINT RightHandRing1
									{
										OFFSET -12.69180 0.00000 -3.06433
										CHANNELS 3 Zrotation Xrotation Yrotation
										JOINT RightHandRing2
										{
											OFFSET -5.62556 0.00000 0.00000
											CHANNELS 3 Zrotation Xrotation Yrotation
											JOINT RightHandRing3
											{
												OFFSET -3.56744 0.00000 0.00000
												CHANNELS 3 Zrotation Xrotation Yrotation
												End site
												{
													OFFSET 0.00000 0.00000 0.00000
												}
											}
										}
									}
									JOINT RightHandPinky1
									{
										OFFSET -11.11390 0.00000 -6.03719
										CHANNELS 3 Zrotation Xrotation Yrotation
										JOINT RightHandPinky2
										{
											OFFSET -4.52789 0.00000 0.00000
											CHANNELS 3 Zrotation Xrotation Yrotation
											JOINT RightHandPinky3
											{
												OFFSET -2.46976 0.00000 0.00000
												CHANNELS 3 Zrotation Xrotation Yrotation
												End site
												{
													OFFSET 0.00000 0.00000 0.00000
												}
											}
										}
									}
								}
							}
						}
					}
					JOINT LeftShoulder
					{
						OFFSET 0.01000 7.91373 5.19711
						CHANNELS 3 Zrotation Xrotation Yrotation
						JOINT LeftArm
						{
							OFFSET 18.41580 0.00000 0.00000
							CHANNELS 3 Zrotation Xrotation Yrotation
							JOINT LeftForeArm
							{
								OFFSET 29.11090 0.00000 0.00000
								CHANNELS 3 Zrotation Xrotation Yrotation
								JOINT LeftHand
								{
									OFFSET 24.65040 0.00000 0.00000
									CHANNELS 3 Zrotation Xrotation Yrotation
									JOINT LeftHandThumb1
									{
										OFFSET 5.35114 -0.85590 3.97906
										CHANNELS 3 Zrotation Xrotation Yrotation
										JOINT LeftHandThumb2
										{
											OFFSET 4.52789 0.00000 0.00000
											CHANNELS 3 Zrotation Xrotation Yrotation
											JOINT LeftHandThumb3
											{
												OFFSET 2.46977 0.00000 0.00000
												CHANNELS 3 Zrotation Xrotation Yrotation
												End site
												{
													OFFSET 0.00000 0.00000 0.00000
												}
											}
										}
									}
									JOINT LeftHandIndex1
									{
										OFFSET 14.26970 0.00000 2.88139
										CHANNELS 3 Zrotation Xrotation Yrotation
										JOINT LeftHandIndex2
										{
											OFFSET 5.48836 0.00000 0.00000
											CHANNELS 3 Zrotation Xrotation Yrotation
											JOINT LeftHandIndex3
											{
												OFFSET 3.01859 0.00000 0.00000
												CHANNELS 3 Zrotation Xrotation Yrotation
												End site
												{
													OFFSET 0.00000 0.00000 0.00000
												}
											}
										}
									}
									JOINT LeftHandMiddle1
									{
										OFFSET 14.26970 0.00000 -0.09147
										CHANNELS 3 Zrotation Xrotation Yrotation
										JOINT LeftHandMiddle2
										{
											OFFSET 6.17440 0.00000 0.00000
											CHANNELS 3 Zrotation Xrotation Yrotation
											JOINT LeftHandMiddle3
											{
												OFFSET 3.56744 0.00000 0.00000
												CHANNELS 3 Zrotation Xrotation Yrotation
												End site
												{
													OFFSET 0.00000 0.00000 0.00000
												}
											}
										}
									}
									JOINT LeftHandRing1
									{
										OFFSET 12.69180 0.00000 -3.06433
										CHANNELS 3 Zrotation Xrotation Yrotation
										JOINT LeftHandRing2
										{
											OFFSET 5.62556 0.00000 0.00000
											CHANNELS 3 Zrotation Xrotation Yrotation
											JOINT LeftHandRing3
											{
												OFFSET 3.56744 0.00000 0.00000
												CHANNELS 3 Zrotation Xrotation Yrotation
												End site
												{
													OFFSET 0.00000 0.00000 0.00000
												}
											}
										}
									}
									JOINT LeftHandPinky1
									{
										OFFSET 11.11390 0.00000 -6.03719
										CHANNELS 3 Zrotation Xrotation Yrotation
										JOINT LeftHandPinky2
										{
											OFFSET 4.52789 0.00000 0.00000
											CHANNELS 3 Zrotation Xrotation Yrotation
											JOINT LeftHandPinky3
											{
												OFFSET 2.46976 0.00000 0.00000
												CHANNELS 3 Zrotation Xrotation Yrotation
												End site
												{
													OFFSET 0.00000 0.00000 0.00000
												}
											}
										}
									}
								}
							}
						}
					}
					JOINT pCube4
					{
						OFFSET 0.00000 10.91090 1.10792
						CHANNELS 3 Zrotation Xrotation Yrotation
						End site
						{
							OFFSET 0.00000 0.00000 0.00000
						}
					}
				}
			}
		}
	}
	JOINT RightUpLeg
	{
		OFFSET -9.98441 0.00000 0.00000
		CHANNELS 3 Zrotation Xrotation Yrotation
		JOINT RightLeg
		{
			OFFSET 0.00000 -42.11790 0.00000
			CHANNELS 3 Zrotation Xrotation Yrotation
			JOINT RightFoot
			{
				OFFSET 0.00000 -45.00020 -0.00001
				CHANNELS 3 Zrotation Xrotation Yrotation
				JOINT RightForeFoot
				{
					OFFSET 0.00000 -3.74820 0.00000
					CHANNELS 3 Zrotation Xrotation Yrotation
					JOINT RightToeBase
					{
						OFFSET 0.00000 0.06325 14.43120
						CHANNELS 3 Zrotation Xrotation Yrotation
						End site
						{
							OFFSET 0.00000 0.00000 0.00000
						}
					}
				}
			}
		}
	}
	JOINT LeftUpLeg
	{
		OFFSET 9.98441 0.00000 0.00000
		CHANNELS 3 Zrotation Xrotation Yrotation
		JOINT LeftLeg
		{
			OFFSET 0.00000 -42.11800 0.00000
			CHANNELS 3 Zrotation Xrotation Yrotation
			JOINT LeftFoot
			{
				OFFSET 0.00000 -45.00070 0.00000
				CHANNELS 3 Zrotation Xrotation Yrotation
				JOINT LeftForeFoot
				{
					OFFSET 0.00000 -3.74824 0.00000
					CHANNELS 3 Zrotation Xrotation Yrotation
					JOINT LeftToeBase
					{
						OFFSET 0.00000 0.06325 14.43110
						CHANNELS 3 Zrotation Xrotation Yrotation
						End site
						{
							OFFSET 0.00000 0.00000 0.00000
						}
					}
				}
			}
		}
	}
}
MOTION
Frames: 4
Frame Time: 0.050000
-0.03713463713302172 -0.02571099678100013 -0.04888146253611855 -0.025700361208243146 0.031502152754426214 -0.04523501331892665 -2.3958441127250176 1.7824540614484186 -0.7486214332299145 -0.9180511878322449 3.6395724933705345 0.39416240684995113 -1.1849646762682782 -1.6606903343088995 0.011421778615703107 -0.38765943637300726 0.00728168196456269 -0.7348150165360913 -0.23241040010750785 12.762004954908944 0.23132505005023518 -0.18980771976330488 0.17437654323907734 -2.1739543457143 -0.16567207860930042 -14.508830839832504 -0.08013245866984528 -5.702942085661285 2.156284662286697 -13.131311256708736 61.83731896033367 0.39822000301938004 26.15715297209407 0.48850747232352326 -3.009770736341225 99.29781579954269 9.807757649461967 -0.2973567892678831 -0.574550670338285 4.560209947043952 -0.14627606832484222 -1.632122491430241 -0.003960685484044924 -0.01120423759498622 -56.26776280058144 0.0438831355047486 0.0037081462493975337 -56.22359403396996 -38.767546093862954 -0.0345450299948604 0.006478362341762415 -0.009345034896679469 0.009394649902853493 0.049297734578406145 -0.003632401492699026 0.0008183388577131213 0.015702282187596055 -36.6596706838044 0.008622603626650625 0.02681991502081754 0.04592558180068402 0.022838427036475754 0.01119048118849669 -0.0003180736632696076 -0.026045895491744554 -0.02871293711049683 -19.79540362430078 0.04035951462968044 -0.016756452554279058 0.02316621321206522 -0.000765985001467871 -0.015498257442658954 -0.004548997779902676 -0.048584854983753756 -0.032284477548895706 24.019299793242535 -0.040938123261236914 0.021081193135024868 28.823757356053463 -0.015787005945762544 -0.037309454451342594 28.851076537660145 0.008873378956130294 -0.03169669658976779 6.243733555367794 1.5421116314518653 12.510254109027585 -63.73058235771313 13.667497574271177 -19.508015287307774 -3.615802958939126 -7.822342906694674 -85.66709611596397 -3.491013184084352 1.6752562294289683 -3.037336771206065 -0.46463468423824983 0.058445346523859756 -8.16723243733555 0.028330211954610735 -0.014247756966639505 44.55523125445365 -0.02226410698973642 -0.006023776055037424 44.585311050208766 12.430452504078172 0.0337378462640056 -0.027125065032093307 0.04994869722010558 0.035809046027953526 -0.0076208209888263935 0.010465526396784958 -0.030873862798575562 -0.0010902595058060265 11.096146516444367 0.011215145371430054 -0.0010917945844960808 0.00926277802134653 -0.012408638385705776 0.0186789678696496 -0.015181798043458023 -0.019551814015209893 -0.0024309645605183543 4.785839194712992 0.007896554271447545 0.0030536314137369056 -0.004161491108664054 -0.0008866622341238133 -0.020809829812221004 0.007929633304215337 -0.04224676020882026 0.023078722356928098 -5.563277161890787 0.01003335018453583 0.04643357144086675 -6.752483624908062 -0.014271858922440466 -0.021151894019383246 -6.750518794358548 -0.036283644886836865 -0.014292818924809344 -0.03412511905343992 -0.013802352934129469 -0.021210854435756703 8.092638948416228 3.4784355501512074 -19.19848070738836 0.013529094664671034 10.375050334185701 0.04504125480808645 -5.640809219250359 -15.633944037693379 3.1810102810477585 0.030569476486725977 0.01877085306141455 -0.012174633618765307 -0.012083800621829335 4.733440361882209 0.0007772694091901936 12.426890253549074 -8.268221747011392 6.9289386354462605 0.0261932504926366 46.33501231805726 0.034634549562547086 -4.340671391247783 -14.716594524720195 -3.8144232049958005 -0.03907388514820259 -0.007383950915229769 -0.00530523097538189 -0.016741903260140516 -10.76814726950862 0.011452880215792412 
-0.009286145882306326 -0.03728627827725409 -0.018597153901636906 -0.009912723984186963 -0.0022111764932209953 0.009327259249186152 -2.5561438381540564 2.2970834211352535 -0.7949627655921501 -0.9130955559680918 3.610120224042168 0.3941524959540018 -1.1416867066728635 -1.4702649312436076 -0.148013843298553 -0.3325192818982051 0.0636930444321481 -0.7538207884349878 -0.24600272963246025 12.492656849777156 0.3035397097819842 -0.19376865709175284 0.04859739318160561 -2.123658430295431 -0.1706597512930599 -14.578358697389067 -0.1433608299882915 -4.998487025614933 1.9433737180603492 -12.91800224334434 61.975407665348335 0.7227087526010842 25.606407572730863 1.224724246751731 -2.0506582029220763 97.35291694683727 10.515007838509161 -0.32549739258313737 -1.0599098288521107 4.519856241431347 -0.09900024520449863 -1.619525059973437 -0.018916649683140007 0.011613629329894298 -56.196339691509706 0.003272247140249529 0.024566606591237387 -56.219607509699074 -38.72694464707002 -0.02965256125156462 0.030285823605826746 -0.014067561772193666 0.024714225692401542 0.0028686100588441697 0.0035613276998597157 -0.0184775413667376 0.04116985235210169 -36.71123057177792 -0.027060613557376625 0.007288241407896823 -0.013365245367368156 -0.001990187913297085 0.005895110174525701 -0.01128722249833368 0.029488189050980426 -0.02274896314285428 -19.80304300634537 -0.026292864200678747 -0.024947146199345818 -0.027884787399417275 0.038516228696426895 -0.03296353228563814 -0.036114490903908746 -0.01192645008966509 -0.0008891434801405563 24.098114084123722 0.01689633206773279 -0.028830307685632706 28.822735888227996 -0.036370499882125915 0.04172439637740465 28.88966178801159 -0.031191072692401574 -0.0139326905485974 5.834657850206888 1.4631296470131543 12.290577312520895 -62.92637453499734 13.469475397822047 -20.76567836760777 -3.8699458244463223 -6.742174848246846 -86.72003340528393 -4.075247855813793 1.5755584501220425 -2.9602879212482156 -0.4988867764499042 0.09168631019258579 -8.1129884686113 -0.0181206558503028 -0.0072168713871237095 44.59701693451209 -0.03534370601169268 -0.024023657245724573 44.53196521041677 12.419700037188903 -0.033089368518124086 0.03476755194525096 0.03745997976645858 0.031265548875656086 -0.011993910352035704 -0.03251637598241141 -0.005112224602077885 0.04685755653507025 11.101739172817929 0.0005862343126435787 -0.03957931742618071 -0.04654609219261042 0.009495422230365261 0.04352086951098504 0.011089574800494868 0.01645119401622007 0.037088996468845885 4.754622441029101 0.016518600823166637 -0.006928837630609898 -0.022436052347268653 0.014855187099418653 -0.005320000501204418 -0.006363533337315628 -0.025686487896113008 0.021101064534835772 -5.639848796079727 -0.002767309855436396 -0.02240706650534431 -6.730457319232968 0.020125588427796732 -0.019932558246251793 -6.741779773002522 0.004975732647690675 0.04810547252494821 0.030276014118742298 0.004478620138973298 -0.017888301917658903 8.024455889180508 3.4687081280572687 -19.21057422678406 -0.02571473153527341 10.388195528080967 0.0540806984689344 -5.606946623493287 -15.611693829633928 3.2279597629489176 -0.004934007910680869 0.035669042552484 -0.024815851443276166 0.015955603083750908 4.701875246726026 0.012524854566216036 12.412963532674109 -8.271790569922244 6.855158898991243 0.015281579535288423 46.409431030423114 0.010197324665354402 -4.354704004975395 -14.742270626133092 -3.8486994362332343 -0.044319728916690254 0.028093110160241127 0.01696872469378129 0.03560977886876347 -10.781495677385866 -0.014718729036194533 
-0.001329638425681321 0.02169367797281525 -0.027302775101129186 -0.014562172420180423 -0.005164505915436126 0.02591525945199788 -2.8416409119057953 2.941134030565551 -0.7007976588311329 -0.9969081834294914 3.6798463747099213 0.4278490056093881 -1.098503254817225 -1.223893492504634 -0.14492850037095306 -0.3412661842076437 0.14599752569022093 -0.7392647749567013 -0.3445209627491704 12.090173012278143 0.2538403195873453 -0.25197180038852507 -0.08841460332896509 -2.2502113176857668 -0.20788334712883386 -14.756701741483848 -0.13615646669802414 -4.0973608677795355 1.6983989055860513 -12.65758834905929 62.10919937760978 1.9383862616798797 24.908969291154403 1.721949139806586 -1.1343224637225895 94.85915097785634 11.472196284253684 -0.3654340653034492 -1.6928141484082924 4.501539866110122 -0.07752192648759723 -1.5584778911994572 -0.009192660302798803 0.006330604370641675 -56.25365456448186 -7.112671307924986e-05 -0.014914684521734943 -56.20719549471569 -38.763543333013736 0.025774628076070855 0.006169810949874495 -0.029051508310066098 -0.015314746728636511 0.015083381107170427 0.012494583047705864 -0.03715233784847318 -0.03305312037079194 -36.732609052845504 0.01028644499281101 -0.02195360329386655 -0.023183891506807615 -0.04016775109025318 -0.008966413203975315 -0.008434885684432715 0.02498605008889677 -0.037854257837245074 -19.732206981648783 -0.027306013452337248 0.04849270777647334 0.026214866397385465 0.01737624077510484 0.015142777587236391 0.02510679521655022 -0.046981360857203155 -0.046083051934342104 24.028610774873727 -0.005379950608048311 0.033536815388033034 28.892403749229896 0.002306458046529471 -0.017258893286829773 28.82930661713825 -0.020488783895093194 -0.013867397172857706 5.0721574716674604 1.3172535902006635 12.122511343384842 -62.06502447584431 14.129631381223854 -21.413145467153445 -3.4015532789129628 -6.01914711617888 -86.66047339605917 -4.792369239674766 1.5369029927115783 -2.7966408384454073 -0.5158652308449634 0.07022793048253285 -8.168588978233538 -0.04249009685113911 -0.007721914675669015 44.59562716301642 0.014779421228330716 0.043101663122336244 44.60821963227675 12.46460548111165 0.00038166343656642084 0.040172143688559696 -0.01282390315000485 -0.009633154425468705 -0.02389952474583814 0.040910019494903804 0.0022800422976642096 0.03833705893172424 11.114354320188625 0.007182233075971042 -0.02184577644573778 0.04338270957354137 -0.013722191069907004 -0.039696967162839845 -0.0004002134798690377 -0.03149298304456043 0.000597145635733849 4.79071849917394 -0.045054754617467135 0.021639338950830866 0.012408596929937702 -0.023243420442997348 -0.005948046787105691 0.008918612752205162 -0.04040897589196707 -0.03558354509017962 -5.578487637522806 -0.009713226016643314 0.0010757938117798873 -6.762573259650677 0.018770114339661043 0.025832503384036035 -6.727807409273084 0.004816868757810415 0.012829166380735018 -0.023616913504533155 0.022875447342723898 0.005761820994844972 8.040695977018595 3.471391373716169 -19.2610214646879 0.04969908694212431 10.367189323527972 0.06189370328013684 -5.624343272549531 -15.61266217589512 3.179182036665098 -0.002167226399348081 -0.04425164798970748 0.049385756390702334 -0.042174331571309134 4.7105673342074255 0.03405006023484031 12.4405728656358 -8.276767524701292 6.926452668384125 0.008046811907614151 46.33983082614107 -0.0037211086671077092 -4.329364641903942 -14.792161469954436 -3.810383963583973 0.002369516098123269 -0.0002569779161557304 -0.021366772082563185 0.049435235716283714 -10.724911330614452 0.023772777155490935 
0.0491930236144891 -0.007700780617501901 0.041906537755405975 -0.022499113656850315 -0.013367867101619189 -0.0004445826467717609 -3.265598847430075 3.6820225782962672 -0.6603551879973921 -1.0020967501860962 3.648320415487931 0.43854166714639886 -1.108428503193968 -1.0038349709860441 -0.3104664183348576 -0.2043948881856004 0.2863025920100353 -0.828396329000369 -0.37929140891247254 11.625236016272954 0.2547922186860237 -0.32575483663298754 -0.2926985982292024 -2.659513395239799 -0.2816760984194904 -14.932759039850305 -0.1021339651327614 -2.9876142106528847 1.3990691017618506 -12.302880091010698 61.764649086814885 3.350471670163939 24.54680849490856 1.8164487143480654 -0.11590785359882444 92.41467247990977 12.69583232904858 -0.37952534939326643 -2.496377622907943 4.525387411008527 -0.15786402690703571 -1.5998804490610212 -0.030805546419112314 -0.039850235257640094 -56.20359684914129 0.002178558516379763 -0.006336323673169322 -56.250259851526934 -38.74936233259778 -0.00456144153523837 0.014680463641351223 0.015613626672968839 0.002018233141631669 0.0010627994876158896 0.009684219832569922 -0.036402028395161684 -0.02765302351152829 -36.67154562703976 -0.0038406397547922073 0.018388306265029564 0.022934008966269414 -0.022274958468208855 0.009526651978925296 0.02959814805575946 -0.025409277891517878 -0.018026882138163825 -19.794739732718238 -0.040328393626329805 0.03919094837744639 0.03848458587286012 0.00010053200976363319 -0.025666833912994094 0.04462734037590103 0.01970772754059521 -0.030766609103754474 24.09920927941766 -0.04462284599829285 -0.02161609318739901 28.842062581184955 -0.01277864779789659 0.03682884472472201 28.907123004496068 0.04341498252505509 0.02463162812576307 3.9569651990579557 1.1150328263975318 11.862868289874394 -60.89569877531264 15.068327177626452 -21.780044491310882 -2.4233313632177764 -5.60364082826793 -85.67101912047758 -5.752810227201284 1.4682877095094578 -2.5035494534586014 -0.4740659915224368 0.06168313717117439 -8.120815383590369 -0.0078106760186181555 -0.020758168018820817 44.600359151567346 0.02710072118340791 -0.015182216349900001 44.56047169094594 12.460116813910563 0.01374602462790923 -0.010675656919545948 -0.01156838620193312 0.03738848607330418 0.01012689169041057 -0.026936257573954223 -0.014998935454664731 -0.005326842128393664 11.129638959185 -0.04762750801997992 0.01703339930842799 0.0012423188973124618 -0.02925852827077472 -0.015772098731268374 -0.021752353654804005 0.01353259630999775 0.025832874957828073 4.819502998694623 -0.03014806978778828 0.04288156927530523 -0.007531622715091494 0.007197264088856774 -0.028321042195627626 -0.021231674741008386 -0.04016963337783608 -0.015444224422525701 -5.646875154928304 0.04236360552322002 -0.012829760847719434 -6.723625136819473 -0.04661337906799548 0.03963525992055215 -6.764784071382415 0.028209295646576624 0.027792949190607007 -0.014179660812923474 0.04956739844973589 0.019714408988854654 8.050819339103032 3.4785264737949024 -19.252996417034026 0.004181767640049637 10.39680089650452 0.042119027101276116 -5.6064010702178475 -15.685202143299472 3.1885007443543882 -0.001548896838342876 -0.0312555576838984 0.005902307507279709 0.0053891104647974435 4.728963888007469 0.026556268596448575 12.49036886231136 -8.233288531977449 6.846695128200344 0.01654494772465092 46.34155799520025 -0.005940441064476435 -4.329550410001938 -14.710226989172954 -3.8064222534509966 -0.049619819872393556 -0.035068161758724896 0.025062779494185672 -0.013691478280192034 -10.749156254825152 -0.042880038786557995 
